<?xml version="1.0" encoding="utf-8"?>
<!-- Svg Vector Icons : http://www.sfont.cn -->
<!DOCTYPE svg PUBLIC "-//W3C//DTD SVG 1.1//EN" "http://www.w3.org/Graphics/SVG/1.1/DTD/svg11.dtd">
<svg version="1.1" xmlns="http://www.w3.org/2000/svg" xmlns:xlink="http://www.w3.org/1999/xlink" x="0px" y="0px" viewBox="0 0 1000 1000" enable-background="new 0 0 1000 1000" xml:space="preserve">
<metadata> Svg Vector Icons : http://www.sfont.cn </metadata>
<g><g transform="translate(0.000000,511.000000) scale(0.100000,-0.100000)"><path d="M1285.4,4325.1l5.9-696.1l2921.3-1201.8C5817.1,1766.7,7132,1221.3,7132,1213.4c0-7.9-2173.7-920.2-5299.3-2221.2l-551.3-228.1v-688.2c0-380.8,5.9-690.2,15.9-690.2c7.9,0,1677.8,715.9,3712.7,1592.6L8708.7,568.8v652.5v652.5L5023.8,3436.6C2996.9,4295.4,1325,5003.4,1309.2,5009.3C1285.4,5019.2,1281.4,4926,1285.4,4325.1z"/><path d="M5000-1910.3L1291.3-3522.6l-5.9-638.6c-2-351,2-632.7,9.9-628.7c9.9,6,1554.9,672.3,3437,1481.5C6614.4-2499.3,8280.3-1781.3,8437-1715.9l281.6,123v648.5c0,359-2,650.5-4,648.5C8710.7-295.9,7040.8-1023.7,5000-1910.3z"/></g></g>
</svg>